<?xml version="1.0" encoding="utf-8"?>
<svg version="1.1" xmlns:xlink="http://www.w3.org/1999/xlink" width="15px" height="33px" xmlns="http://www.w3.org/2000/svg">
  <defs>
    <pattern id="BGPattern" patternUnits="userSpaceOnUse" alignment="0 0" imageRepeat="None" />
    <mask fill="white" id="Clip378">
      <path d="M 14.407894736842104 7.646341463414634  C 14.407894736842104 3.7567750850331354  11.315124916594293 0.6036585365853658  7.5 0.6036585365853658  L 4.046052631578948 0.6036585365853658  C 2.1384901732818005 0.6036585365853658  0.5921052631578947 2.1802168108092506  0.5921052631578947 4.125  C 0.5921052631578947 6.069783189190749  2.1384901732818005 7.646341463414634  4.046052631578948 7.646341463414634  L 7.5 7.646341463414634  L 7.5 28.774390243902438  C 7.5 30.719173433093196  9.046384910123905 32.295731707317074  10.953947368421053 32.295731707317074  C 12.8615098267182 32.295731707317074  14.407894736842104 30.719173433093196  14.407894736842104 28.774390243902438  L 14.407894736842104 7.646341463414634  Z " fill-rule="evenodd" />
    </mask>
  </defs>
  <g transform="matrix(1 0 0 1 -625 -883 )">
    <path d="M 14.407894736842104 7.646341463414634  C 14.407894736842104 3.7567750850331354  11.315124916594293 0.6036585365853658  7.5 0.6036585365853658  L 4.046052631578948 0.6036585365853658  C 2.1384901732818005 0.6036585365853658  0.5921052631578947 2.1802168108092506  0.5921052631578947 4.125  C 0.5921052631578947 6.069783189190749  2.1384901732818005 7.646341463414634  4.046052631578948 7.646341463414634  L 7.5 7.646341463414634  L 7.5 28.774390243902438  C 7.5 30.719173433093196  9.046384910123905 32.295731707317074  10.953947368421053 32.295731707317074  C 12.8615098267182 32.295731707317074  14.407894736842104 30.719173433093196  14.407894736842104 28.774390243902438  L 14.407894736842104 7.646341463414634  Z " fill-rule="nonzero" fill="rgba(20, 38, 85, 1)" stroke="none" transform="matrix(1 0 0 1 625 883 )" class="fill" />
    <path d="M 14.407894736842104 7.646341463414634  C 14.407894736842104 3.7567750850331354  11.315124916594293 0.6036585365853658  7.5 0.6036585365853658  L 4.046052631578948 0.6036585365853658  C 2.1384901732818005 0.6036585365853658  0.5921052631578947 2.1802168108092506  0.5921052631578947 4.125  C 0.5921052631578947 6.069783189190749  2.1384901732818005 7.646341463414634  4.046052631578948 7.646341463414634  L 7.5 7.646341463414634  L 7.5 28.774390243902438  C 7.5 30.719173433093196  9.046384910123905 32.295731707317074  10.953947368421053 32.295731707317074  C 12.8615098267182 32.295731707317074  14.407894736842104 30.719173433093196  14.407894736842104 28.774390243902438  L 14.407894736842104 7.646341463414634  Z " stroke-width="0" stroke-dasharray="0" stroke="rgba(255, 255, 255, 0)" fill="none" transform="matrix(1 0 0 1 625 883 )" class="stroke" mask="url(#Clip378)" />
  </g>
</svg>