<?xml version="1.0" encoding="utf-8"?>
<svg version="1.1" xmlns:xlink="http://www.w3.org/1999/xlink" width="19px" height="36px" xmlns="http://www.w3.org/2000/svg">
  <defs>
    <pattern id="BGPattern" patternUnits="userSpaceOnUse" alignment="0 0" imageRepeat="None" />
    <mask fill="white" id="Clip383">
      <path d="M 16.5 23.300000000000004  C 19.424533780575146 20.371824532260426  19.424533780575146 15.628175467739574  16.5 12.700000000000003  L 5.025000000000002 1.2249999999999996  C 4.049906364222693 0.2556910132230019  2.4750936357773057 0.2556910132230019  1.5 1.2249999999999996  C 1.0267183729422626 1.694416499763891  0.7605041891458271 2.333406159073604  0.7605041891458271 3  C 0.7605041891458271 3.666593840926396  1.0267183729422626 4.305583500236111  1.5 4.774999999999999  L 13 16.224999999999998  C 13.473281627057744 16.69441649976389  13.739495810854173 17.3334061590736  13.739495810854173 18  C 13.739495810854173 18.666593840926396  13.473281627057736 19.30558350023611  13 19.775  L 1.5 31.224999999999994  C 1.0270669414010172 31.694602544101812  0.7610941452854973 32.333522523004206  0.7610941452854973 33  C 0.7610941452854973 34.381488306696276  1.8810116933037193 35.501405854714505  3.262500000000003 35.501405854714505  C 3.922851760299416 35.501405854714505  4.556413755859609 35.24028634101265  5.025000000000002 34.775000000000006  L 16.5 23.300000000000004  Z " fill-rule="evenodd" />
    </mask>
  </defs>
  <g transform="matrix(1 0 0 1 -860 -229 )">
    <path d="M 16.5 23.300000000000004  C 19.424533780575146 20.371824532260426  19.424533780575146 15.628175467739574  16.5 12.700000000000003  L 5.025000000000002 1.2249999999999996  C 4.049906364222693 0.2556910132230019  2.4750936357773057 0.2556910132230019  1.5 1.2249999999999996  C 1.0267183729422626 1.694416499763891  0.7605041891458271 2.333406159073604  0.7605041891458271 3  C 0.7605041891458271 3.666593840926396  1.0267183729422626 4.305583500236111  1.5 4.774999999999999  L 13 16.224999999999998  C 13.473281627057744 16.69441649976389  13.739495810854173 17.3334061590736  13.739495810854173 18  C 13.739495810854173 18.666593840926396  13.473281627057736 19.30558350023611  13 19.775  L 1.5 31.224999999999994  C 1.0270669414010172 31.694602544101812  0.7610941452854973 32.333522523004206  0.7610941452854973 33  C 0.7610941452854973 34.381488306696276  1.8810116933037193 35.501405854714505  3.262500000000003 35.501405854714505  C 3.922851760299416 35.501405854714505  4.556413755859609 35.24028634101265  5.025000000000002 34.775000000000006  L 16.5 23.300000000000004  Z " fill-rule="nonzero" fill="rgba(20, 38, 85, 1)" stroke="none" transform="matrix(1 0 0 1 860 229 )" class="fill" />
    <path d="M 16.5 23.300000000000004  C 19.424533780575146 20.371824532260426  19.424533780575146 15.628175467739574  16.5 12.700000000000003  L 5.025000000000002 1.2249999999999996  C 4.049906364222693 0.2556910132230019  2.4750936357773057 0.2556910132230019  1.5 1.2249999999999996  C 1.0267183729422626 1.694416499763891  0.7605041891458271 2.333406159073604  0.7605041891458271 3  C 0.7605041891458271 3.666593840926396  1.0267183729422626 4.305583500236111  1.5 4.774999999999999  L 13 16.224999999999998  C 13.473281627057744 16.69441649976389  13.739495810854173 17.3334061590736  13.739495810854173 18  C 13.739495810854173 18.666593840926396  13.473281627057736 19.30558350023611  13 19.775  L 1.5 31.224999999999994  C 1.0270669414010172 31.694602544101812  0.7610941452854973 32.333522523004206  0.7610941452854973 33  C 0.7610941452854973 34.381488306696276  1.8810116933037193 35.501405854714505  3.262500000000003 35.501405854714505  C 3.922851760299416 35.501405854714505  4.556413755859609 35.24028634101265  5.025000000000002 34.775000000000006  L 16.5 23.300000000000004  Z " stroke-width="0" stroke-dasharray="0" stroke="rgba(255, 255, 255, 0)" fill="none" transform="matrix(1 0 0 1 860 229 )" class="stroke" mask="url(#Clip383)" />
  </g>
</svg>