<?xml version="1.0" encoding="utf-8"?>
<svg version="1.1" xmlns:xlink="http://www.w3.org/1999/xlink" width="60px" height="61px" xmlns="http://www.w3.org/2000/svg">
  <defs>
    <pattern id="BGPattern" patternUnits="userSpaceOnUse" alignment="0 0" imageRepeat="None" />
    <mask fill="white" id="Clip416">
      <path d="M 35 6  C 33.61928812542302 6  32.5 4.880711874576983  32.5 3.5  C 32.5 2.1192881254230165  33.61928812542302 1  35.00000000000001 1  C 48.8008360806795 1.0151559261369474  59.98484407386306 12.199163919320501  60 26  C 60 27.38071187457698  58.88071187457698 28.5  57.5 28.5  C 56.11928812542302 28.5  55 27.38071187457698  55 26.000000000000004  C 54.987600288629366 14.95944521088812  46.04055478911189 6.012399711370634  35 6  Z M 35 16  C 40.52284749830793 16  45 20.477152501692064  45 26  C 45 27.38071187457698  46.11928812542302 28.5  47.5 28.5  C 48.88071187457698 28.5  50 27.38071187457698  50 26  C 49.99173155255494 17.71915607375579  43.280843926244216 11.008268447445065  35 11  C 33.61928812542302 11  32.5 12.119288125423017  32.5 13.5  C 32.5 14.880711874576983  33.61928812542302 16  35 16  Z M 51.64 38.14  C 51.64 38.14  57.655 42.769999999999996  57.7325 42.847500000000004  C 60.74897380664203 45.87232162299819  60.74897380664203 50.76767837700181  57.7325 53.792500000000004  L 55.457499999999996 56.415  C 34.9825 76.0175  -14.842500000000003 26.205000000000002  4.457500000000003 5.664999999999999  L 7.332500000000004 3.164999999999999  C 10.35895131298246 0.2345073702700502  15.178241863700858 0.27905824201230633  18.15 3.265  C 18.2275 3.3425000000000002  22.86 9.360000000000001  22.86 9.360000000000001  C 25.715439808944083 12.359805910305077  25.707732387098563 17.0745459592354  22.8425 20.065  L 19.9475 23.705000000000002  C 23.183331683038524 31.567319177947574  29.419226318368786 37.815809762620596  37.275 41.0675  L 40.9375 38.155  C 43.92829441734736 35.292059266767666  48.64119228652183 35.28545394389566  51.64 38.14  Z M 54.080000000000005 50.375  C 55.18945386469929 49.34735162702728  55.283490802298836 47.62481619358598  54.2925 46.4825  C 54.2925 46.4825  48.309999999999995 41.88  48.23250000000001 41.8025  C 47.16048294704664 40.73956943107187  45.43201705295337 40.739569431071864  44.36 41.8025  C 44.2925 41.8725  39.25 45.89000000000001  39.25 45.89000000000001  C 38.558651797028205 46.440299820595705  37.62815912467532 46.58476855011321  36.8025 46.27000000000001  C 26.60704125681264 42.47400785118976  18.561024708957273 34.43984916696914  14.75 24.25  C 14.409957940133161 23.41241643014904  14.548564826213932 22.456506870971292  15.1125 21.75  C 15.1125 21.75  19.13 16.705  19.1975 16.64  C 20.260430568928136 15.567982947046636  20.260430568928136 13.839517052953367  19.1975 12.767500000000002  C 19.12 12.6925  14.517500000000002 6.705000000000002  14.517500000000002 6.705000000000002  C 13.432204156746224 5.731852651276743  11.776113830909134 5.774625845122868  10.742500000000001 6.802500000000003  L 7.8675000000000015 9.302500000000002  C -6.237500000000001 26.262500000000003  36.94 67.045  51.8025 53  L 54.080000000000005 50.375  Z " fill-rule="evenodd" />
    </mask>
  </defs>
  <g transform="matrix(1 0 0 1 -462 -510 )">
    <path d="M 35 6  C 33.61928812542302 6  32.5 4.880711874576983  32.5 3.5  C 32.5 2.1192881254230165  33.61928812542302 1  35.00000000000001 1  C 48.8008360806795 1.0151559261369474  59.98484407386306 12.199163919320501  60 26  C 60 27.38071187457698  58.88071187457698 28.5  57.5 28.5  C 56.11928812542302 28.5  55 27.38071187457698  55 26.000000000000004  C 54.987600288629366 14.95944521088812  46.04055478911189 6.012399711370634  35 6  Z M 35 16  C 40.52284749830793 16  45 20.477152501692064  45 26  C 45 27.38071187457698  46.11928812542302 28.5  47.5 28.5  C 48.88071187457698 28.5  50 27.38071187457698  50 26  C 49.99173155255494 17.71915607375579  43.280843926244216 11.008268447445065  35 11  C 33.61928812542302 11  32.5 12.119288125423017  32.5 13.5  C 32.5 14.880711874576983  33.61928812542302 16  35 16  Z M 51.64 38.14  C 51.64 38.14  57.655 42.769999999999996  57.7325 42.847500000000004  C 60.74897380664203 45.87232162299819  60.74897380664203 50.76767837700181  57.7325 53.792500000000004  L 55.457499999999996 56.415  C 34.9825 76.0175  -14.842500000000003 26.205000000000002  4.457500000000003 5.664999999999999  L 7.332500000000004 3.164999999999999  C 10.35895131298246 0.2345073702700502  15.178241863700858 0.27905824201230633  18.15 3.265  C 18.2275 3.3425000000000002  22.86 9.360000000000001  22.86 9.360000000000001  C 25.715439808944083 12.359805910305077  25.707732387098563 17.0745459592354  22.8425 20.065  L 19.9475 23.705000000000002  C 23.183331683038524 31.567319177947574  29.419226318368786 37.815809762620596  37.275 41.0675  L 40.9375 38.155  C 43.92829441734736 35.292059266767666  48.64119228652183 35.28545394389566  51.64 38.14  Z M 54.080000000000005 50.375  C 55.18945386469929 49.34735162702728  55.283490802298836 47.62481619358598  54.2925 46.4825  C 54.2925 46.4825  48.309999999999995 41.88  48.23250000000001 41.8025  C 47.16048294704664 40.73956943107187  45.43201705295337 40.739569431071864  44.36 41.8025  C 44.2925 41.8725  39.25 45.89000000000001  39.25 45.89000000000001  C 38.558651797028205 46.440299820595705  37.62815912467532 46.58476855011321  36.8025 46.27000000000001  C 26.60704125681264 42.47400785118976  18.561024708957273 34.43984916696914  14.75 24.25  C 14.409957940133161 23.41241643014904  14.548564826213932 22.456506870971292  15.1125 21.75  C 15.1125 21.75  19.13 16.705  19.1975 16.64  C 20.260430568928136 15.567982947046636  20.260430568928136 13.839517052953367  19.1975 12.767500000000002  C 19.12 12.6925  14.517500000000002 6.705000000000002  14.517500000000002 6.705000000000002  C 13.432204156746224 5.731852651276743  11.776113830909134 5.774625845122868  10.742500000000001 6.802500000000003  L 7.8675000000000015 9.302500000000002  C -6.237500000000001 26.262500000000003  36.94 67.045  51.8025 53  L 54.080000000000005 50.375  Z " fill-rule="nonzero" fill="rgba(20, 38, 85, 1)" stroke="none" transform="matrix(1 0 0 1 462 510 )" class="fill" />
    <path d="M 35 6  C 33.61928812542302 6  32.5 4.880711874576983  32.5 3.5  C 32.5 2.1192881254230165  33.61928812542302 1  35.00000000000001 1  C 48.8008360806795 1.0151559261369474  59.98484407386306 12.199163919320501  60 26  C 60 27.38071187457698  58.88071187457698 28.5  57.5 28.5  C 56.11928812542302 28.5  55 27.38071187457698  55 26.000000000000004  C 54.987600288629366 14.95944521088812  46.04055478911189 6.012399711370634  35 6  Z " stroke-width="0" stroke-dasharray="0" stroke="rgba(255, 255, 255, 0)" fill="none" transform="matrix(1 0 0 1 462 510 )" class="stroke" mask="url(#Clip416)" />
    <path d="M 35 16  C 40.52284749830793 16  45 20.477152501692064  45 26  C 45 27.38071187457698  46.11928812542302 28.5  47.5 28.5  C 48.88071187457698 28.5  50 27.38071187457698  50 26  C 49.99173155255494 17.71915607375579  43.280843926244216 11.008268447445065  35 11  C 33.61928812542302 11  32.5 12.119288125423017  32.5 13.5  C 32.5 14.880711874576983  33.61928812542302 16  35 16  Z " stroke-width="0" stroke-dasharray="0" stroke="rgba(255, 255, 255, 0)" fill="none" transform="matrix(1 0 0 1 462 510 )" class="stroke" mask="url(#Clip416)" />
    <path d="M 51.64 38.14  C 51.64 38.14  57.655 42.769999999999996  57.7325 42.847500000000004  C 60.74897380664203 45.87232162299819  60.74897380664203 50.76767837700181  57.7325 53.792500000000004  L 55.457499999999996 56.415  C 34.9825 76.0175  -14.842500000000003 26.205000000000002  4.457500000000003 5.664999999999999  L 7.332500000000004 3.164999999999999  C 10.35895131298246 0.2345073702700502  15.178241863700858 0.27905824201230633  18.15 3.265  C 18.2275 3.3425000000000002  22.86 9.360000000000001  22.86 9.360000000000001  C 25.715439808944083 12.359805910305077  25.707732387098563 17.0745459592354  22.8425 20.065  L 19.9475 23.705000000000002  C 23.183331683038524 31.567319177947574  29.419226318368786 37.815809762620596  37.275 41.0675  L 40.9375 38.155  C 43.92829441734736 35.292059266767666  48.64119228652183 35.28545394389566  51.64 38.14  Z " stroke-width="0" stroke-dasharray="0" stroke="rgba(255, 255, 255, 0)" fill="none" transform="matrix(1 0 0 1 462 510 )" class="stroke" mask="url(#Clip416)" />
    <path d="M 54.080000000000005 50.375  C 55.18945386469929 49.34735162702728  55.283490802298836 47.62481619358598  54.2925 46.4825  C 54.2925 46.4825  48.309999999999995 41.88  48.23250000000001 41.8025  C 47.16048294704664 40.73956943107187  45.43201705295337 40.739569431071864  44.36 41.8025  C 44.2925 41.8725  39.25 45.89000000000001  39.25 45.89000000000001  C 38.558651797028205 46.440299820595705  37.62815912467532 46.58476855011321  36.8025 46.27000000000001  C 26.60704125681264 42.47400785118976  18.561024708957273 34.43984916696914  14.75 24.25  C 14.409957940133161 23.41241643014904  14.548564826213932 22.456506870971292  15.1125 21.75  C 15.1125 21.75  19.13 16.705  19.1975 16.64  C 20.260430568928136 15.567982947046636  20.260430568928136 13.839517052953367  19.1975 12.767500000000002  C 19.12 12.6925  14.517500000000002 6.705000000000002  14.517500000000002 6.705000000000002  C 13.432204156746224 5.731852651276743  11.776113830909134 5.774625845122868  10.742500000000001 6.802500000000003  L 7.8675000000000015 9.302500000000002  C -6.237500000000001 26.262500000000003  36.94 67.045  51.8025 53  L 54.080000000000005 50.375  Z " stroke-width="0" stroke-dasharray="0" stroke="rgba(255, 255, 255, 0)" fill="none" transform="matrix(1 0 0 1 462 510 )" class="stroke" mask="url(#Clip416)" />
  </g>
</svg>