<?xml version="1.0" encoding="utf-8"?>
<svg version="1.1" xmlns:xlink="http://www.w3.org/1999/xlink" width="181px" height="102px" xmlns="http://www.w3.org/2000/svg">
  <defs>
    <pattern id="BGPattern" patternUnits="userSpaceOnUse" alignment="0 0" imageRepeat="None" />
    <mask fill="white" id="Clip287">
      <path d="M 180.71360759493678 90.95738636363637  C 180.6583655032319 41.06288822842873  140.3006997303915 0.6292097752025256  90.5 0.573863636363626  C 40.6993002696085 0.6292097752025256  0.34163449676816526 41.06288822842873  0.2863924050632818 90.95738636363637  C 0.2863924050632818 96.50376872344282  4.774171059844832 101  10.310126582278485 101  C 15.846082104712139 101  170.68987341772151 102.39297326889736  170.68987341772151 96.84659090909093  C 170.68987341772151 96.84659090909093  165.84848484848482 87.04545454545456  165.84848484848482 87.04545454545456  C 165.84848542592994 48.22077843589415  51.74831175127974 101  90.5 101  C 129.25168865703563 101  12.960227272727252 49.92532348135518  12.960227272727252 88.75  C 12.960227272727252 88.75  57.13636363636357 96.84659090909093  57.13636363636357 96.84659090909093  C 57.13636363636357 102.39297326889736  165.1539178952878 101  170.68987341772151 101  C 176.22582894015522 101  180.71360759493672 96.50376872344282  180.71360759493672 90.95738636363637  Z " fill-rule="evenodd" />
    </mask>
  </defs>
  <g transform="matrix(1 0 0 1 -319 -355 )">
    <path d="M 180.71360759493678 90.95738636363637  C 180.6583655032319 41.06288822842873  140.3006997303915 0.6292097752025256  90.5 0.573863636363626  C 40.6993002696085 0.6292097752025256  0.34163449676816526 41.06288822842873  0.2863924050632818 90.95738636363637  C 0.2863924050632818 96.50376872344282  4.774171059844832 101  10.310126582278485 101  C 15.846082104712139 101  170.68987341772151 102.39297326889736  170.68987341772151 96.84659090909093  C 170.68987341772151 96.84659090909093  165.84848484848482 87.04545454545456  165.84848484848482 87.04545454545456  C 165.84848542592994 48.22077843589415  51.74831175127974 101  90.5 101  C 129.25168865703563 101  12.960227272727252 49.92532348135518  12.960227272727252 88.75  C 12.960227272727252 88.75  57.13636363636357 96.84659090909093  57.13636363636357 96.84659090909093  C 57.13636363636357 102.39297326889736  165.1539178952878 101  170.68987341772151 101  C 176.22582894015522 101  180.71360759493672 96.50376872344282  180.71360759493672 90.95738636363637  Z " fill-rule="nonzero" fill="rgba(20, 38, 85, 1)" stroke="none" transform="matrix(1 0 0 1 319 355 )" class="fill" />
    <path d="M 180.71360759493678 90.95738636363637  C 180.6583655032319 41.06288822842873  140.3006997303915 0.6292097752025256  90.5 0.573863636363626  C 40.6993002696085 0.6292097752025256  0.34163449676816526 41.06288822842873  0.2863924050632818 90.95738636363637  C 0.2863924050632818 96.50376872344282  4.774171059844832 101  10.310126582278485 101  C 15.846082104712139 101  170.68987341772151 102.39297326889736  170.68987341772151 96.84659090909093  C 170.68987341772151 96.84659090909093  165.84848484848482 87.04545454545456  165.84848484848482 87.04545454545456  C 165.84848542592994 48.22077843589415  51.74831175127974 101  90.5 101  C 129.25168865703563 101  12.960227272727252 49.92532348135518  12.960227272727252 88.75  C 12.960227272727252 88.75  57.13636363636357 96.84659090909093  57.13636363636357 96.84659090909093  C 57.13636363636357 102.39297326889736  165.1539178952878 101  170.68987341772151 101  C 176.22582894015522 101  180.71360759493672 96.50376872344282  180.71360759493672 90.95738636363637  Z " stroke-width="0" stroke-dasharray="0" stroke="rgba(255, 255, 255, 0)" fill="none" transform="matrix(1 0 0 1 319 355 )" class="stroke" mask="url(#Clip287)" />
  </g>
</svg>